# 3ds Max Wavefront OBJ Exporter v0.97b - (c)2007 guruware
# File Created: 06.05.2014 13:53:33

mtllib grassTuft.mtl

#
# object Plane002
#

v  -30.5141 25.8958 0.0000
v  -30.5141 0.0302 -0.0000
v  30.7909 25.8958 0.0000
v  30.7909 0.0302 -0.0000
# 4 vertices

vn 0.0000 -0.0000 1.0000
# 1 vertex normals

vt 0.0000 1.0000 0.0000
vt 0.0000 0.0000 0.0000
vt 1.0000 1.0000 0.0000
vt 1.0000 0.0000 0.0000
# 4 texture coords

g Plane002
usemtl GrassTuft
f 1/1/1 2/2/1 3/3/1 
f 4/4/1 3/3/1 2/2/1 
# 2 faces

